<svg width="41" height="40" fill="none" xmlns="http://www.w3.org/2000/svg"><path d="M22.593 11.034V6.708c-1.302.216-7.023-.594-7.023-.594l2.347 4.986a8.749 8.749 0 00-6.282 8.39v8.222l10.296 1.043 1.62 2.277 5.19-1.587s.391-7.85.391-9.955a8.69 8.69 0 00-.91-3.884c-.166-.334-1.265.397-1.265.027 0-1.569-.532-2.936-2.373-3.076-.715-.054-1.281-1.338-1.991-1.523z" fill="#18BABD"/><path d="M29.932 28.876v-9.308c0-.604-.056-1.207-.169-1.8a.8.8 0 10-1.572.3c.094.495.142.997.141 1.5v9.14a26.63 26.63 0 00-4.509 1.602 2.509 2.509 0 00-2.497-2.367H16.79a10.74 10.74 0 00-4.208-1.117c-.05 0-.099.005-.149.006v-7.264a7.958 7.958 0 017.95-7.949.8.8 0 100-1.6 9.53 9.53 0 00-2.006.216l-1.456-3.116c.893.123 1.793.193 2.694.21a.8.8 0 100-1.6 30.308 30.308 0 01-3.913-.404.8.8 0 00-.858 1.128l1.99 4.257a9.559 9.559 0 00-6 8.858v7.53a9.135 9.135 0 00-2.593 1.292H3.32a.8.8 0 000 1.6h4.39v6.381H4.323a.8.8 0 000 1.6h4.186l11.052-.001c.026.002.207.012.49.012a9.049 9.049 0 003.685-.704 42.385 42.385 0 006.417-4.04 2.553 2.553 0 001.101-2.08 2.653 2.653 0 00-.892-1.994 2.246 2.246 0 00-.43-.288zm-.726 3.074a40.937 40.937 0 01-6.166 3.887 8.218 8.218 0 01-3.427.535H9.31v-6.774a6.308 6.308 0 013.274-1.172 9.541 9.541 0 013.647 1.025c.115.06.242.092.372.092h4.724a.912.912 0 010 1.825h-5.03a.8.8 0 000 1.6h5.03a2.48 2.48 0 001.136-.285c.009-.004.019-.002.028-.007 1.24-.599 4.798-2.206 6.37-2.44a.537.537 0 01.458.14 1.064 1.064 0 01.336.781.967.967 0 01-.448.793zm-14.233-9.962a.8.8 0 01.8.8v1.906a.8.8 0 01-1.6 0v-1.906a.798.798 0 01.8-.8zm1.033-4.498a.8.8 0 01-.641-1.278 6.072 6.072 0 014.848-2.436.8.8 0 010 1.6 4.404 4.404 0 00-3.565 1.792.8.8 0 01-.642.322zM34.948 2.018h-9.755a3.203 3.203 0 00-3.2 3.2v5.395a3.204 3.204 0 003.2 3.2h.833l-.455 3.006a.8.8 0 001.289.746l4.725-3.752h3.363a3.203 3.203 0 003.2-3.2V5.218a3.204 3.204 0 00-3.2-3.2zm1.6 8.595a1.602 1.602 0 01-1.6 1.6h-3.642a.8.8 0 00-.497.173l-3.351 2.661.29-1.915a.801.801 0 00-.791-.92h-1.764a1.602 1.602 0 01-1.6-1.6V5.219a1.602 1.602 0 011.6-1.6h9.755a1.602 1.602 0 011.6 1.6v5.395zm-2.868-2.94a2.01 2.01 0 100 4.02 2.01 2.01 0 000-4.02zm0 2.42a.41.41 0 110-.82.41.41 0 010 .82zm-4.958-3.775a2.01 2.01 0 10-4.02 0 2.01 2.01 0 004.02 0zm-2.01.41a.41.41 0 110-.82.41.41 0 010 .82zm6.443-.661l-5.038 5.037a.8.8 0 01-1.13-1.13l5.037-5.038a.8.8 0 111.131 1.13zM5.72 35.262a.776.776 0 110-1.551.776.776 0 010 1.55z" fill="#1D2D52"/></svg>
