<svg width="40" height="40" viewBox="0 0 40 40" fill="none" xmlns="http://www.w3.org/2000/svg">
<path d="M10.7478 17.0505H6.91411C6.1617 17.0505 5.55176 17.6605 5.55176 18.4129V22.2465C5.55176 22.9989 6.1617 23.6089 6.91411 23.6089H10.7478C11.5002 23.6089 12.1101 22.9989 12.1101 22.2465V18.4129C12.1101 17.6605 11.5002 17.0505 10.7478 17.0505Z" fill="#D3D8E3"/>
<path d="M17.9966 17.0505H21.8302C22.1916 17.0505 22.5381 17.1941 22.7936 17.4496C23.0491 17.7051 23.1926 18.0516 23.1926 18.4129V22.2465C23.1926 22.6079 23.0491 22.9544 22.7936 23.2099C22.5381 23.4654 22.1916 23.6089 21.8303 23.6089H17.9966C17.6353 23.6089 17.2888 23.4654 17.0333 23.2099C16.7778 22.9544 16.6343 22.6079 16.6343 22.2465V18.4129C16.6343 18.0516 16.7778 17.7051 17.0333 17.4496C17.2888 17.1941 17.6353 17.0505 17.9966 17.0505Z" fill="#18BABD"/>
<path d="M32.9128 17.0505H29.0791C28.3267 17.0505 27.7168 17.6605 27.7168 18.4129V22.2465C27.7168 22.9989 28.3267 23.6089 29.0791 23.6089H32.9128C33.6652 23.6089 34.2751 22.9989 34.2751 22.2465V18.4129C34.2751 17.6605 33.6652 17.0505 32.9128 17.0505Z" fill="#D3D8E3"/>
<path d="M6.91416 28.6396H10.7477C11.109 28.6396 11.4555 28.7832 11.711 29.0387C11.9665 29.2942 12.1101 29.6407 12.1101 30.002V33.8356C12.1101 34.197 11.9665 34.5435 11.7111 34.799C11.4556 35.0544 11.1091 35.198 10.7478 35.198H6.91409C6.55277 35.198 6.20626 35.0545 5.95077 34.799C5.69529 34.5435 5.55176 34.197 5.55176 33.8356V30.002C5.55176 29.6407 5.6953 29.2942 5.9508 29.0387C6.2063 28.7832 6.55283 28.6396 6.91416 28.6396Z" fill="#D3D8E3"/>
<path d="M21.8303 28.6397H17.9967C17.6353 28.6397 17.2888 28.7832 17.0333 29.0387C16.7778 29.2942 16.6343 29.6407 16.6343 30.0021V33.8357C16.6343 34.0146 16.6695 34.1917 16.738 34.357C16.8065 34.5223 16.9068 34.6725 17.0333 34.799C17.1598 34.9255 17.31 35.0259 17.4753 35.0943C17.6406 35.1628 17.8178 35.198 17.9967 35.198L18.7612 35.1552C19.5136 35.1552 21.3321 32.6713 21.3321 31.9189L22.8486 29.1054C22.7331 28.9469 22.5787 28.8208 22.4004 28.7393C22.222 28.6577 22.0257 28.6234 21.8303 28.6397Z" fill="#D3D8E3"/>
<path d="M34.3431 4.03799H30.7997V1.99971C30.7997 1.78753 30.7154 1.58405 30.5654 1.43402C30.4154 1.28399 30.2119 1.19971 29.9997 1.19971C29.7875 1.19971 29.5841 1.28399 29.434 1.43402C29.284 1.58405 29.1997 1.78753 29.1997 1.99971V4.03799H10.7997V1.99971C10.7997 1.78753 10.7154 1.58405 10.5654 1.43402C10.4154 1.28399 10.2119 1.19971 9.99971 1.19971C9.78753 1.19971 9.58405 1.28399 9.43402 1.43402C9.28399 1.58405 9.19971 1.78753 9.19971 1.99971V4.03799H5.65674C4.59626 4.03923 3.57956 4.46106 2.82969 5.21094C2.07981 5.96081 1.65799 6.9775 1.65674 8.03799V34.7997C1.65799 35.8602 2.07981 36.8769 2.82969 37.6268C3.57956 38.3766 4.59626 38.7985 5.65674 38.7997H9.98291C10.1368 38.8028 10.2876 38.8044 10.4376 38.8044C10.4783 38.8044 10.514 38.8 10.5545 38.7997H24.0442C24.2564 38.7997 24.4599 38.7154 24.6099 38.5654C24.76 38.4154 24.8442 38.2119 24.8442 37.9997C24.8442 37.7875 24.76 37.5841 24.6099 37.434C24.4599 37.284 24.2564 37.1997 24.0442 37.1997H17.2894C20.9554 35.1116 22.7714 31.2191 24.7587 26.9317C25.0126 26.3833 25.2712 25.8255 25.5388 25.2606C25.5737 25.1858 25.6234 25.1187 25.6849 25.0635C25.7464 25.0084 25.8184 24.9662 25.8966 24.9395C25.9718 24.9135 26.0514 24.9029 26.1307 24.9081C26.2101 24.9133 26.2876 24.9344 26.3587 24.97C29.7571 26.6859 34.2999 28.4199 36.7431 26.987V34.7997C36.7424 35.436 36.4893 36.046 36.0394 36.496C35.5895 36.9459 34.9794 37.199 34.3431 37.1997H32.3607C32.1485 37.1997 31.945 37.284 31.795 37.434C31.645 37.584 31.5607 37.7875 31.5607 37.9997C31.5607 38.2119 31.645 38.4153 31.795 38.5654C31.945 38.7154 32.1485 38.7997 32.3607 38.7997H34.3431C35.4036 38.7984 36.4203 38.3766 37.1702 37.6267C37.92 36.8769 38.3419 35.8602 38.3431 34.7997V8.03799C38.3419 6.9775 37.92 5.9608 37.1701 5.21093C36.4203 4.46105 35.4036 4.03923 34.3431 4.03799ZM35.9661 25.5935C34.6052 26.431 31.2829 25.6661 27.0802 23.5419C26.8168 23.4098 26.5296 23.3318 26.2356 23.3125C25.9415 23.2931 25.6466 23.3328 25.3682 23.4292C25.0897 23.5256 24.8334 23.6768 24.6143 23.8738C24.3951 24.0708 24.2177 24.3096 24.0923 24.5763C23.8231 25.1458 23.5613 25.7068 23.3067 26.2591C20.3173 32.7091 18.1485 37.3693 10.0165 37.1997H5.65674C5.02043 37.199 4.41039 36.946 3.96045 36.496C3.51051 36.0461 3.25743 35.436 3.25674 34.7997V14.7997H9.99971C10.2119 14.7997 10.4154 14.7154 10.5654 14.5654C10.7154 14.4154 10.7997 14.2119 10.7997 13.9997C10.7997 13.7876 10.7154 13.5841 10.5654 13.434C10.4154 13.284 10.2119 13.1997 9.99971 13.1997H3.25674V8.03799C3.25743 7.40168 3.51051 6.79164 3.96045 6.3417C4.41039 5.89176 5.02043 5.63868 5.65674 5.63799H9.19971V7.63252C9.19971 7.8447 9.28399 8.04818 9.43402 8.19821C9.58405 8.34824 9.78753 8.43252 9.99971 8.43252C10.2119 8.43252 10.4154 8.34824 10.5654 8.19821C10.7154 8.04818 10.7997 7.8447 10.7997 7.63252V5.63799H29.1997V7.63252C29.1997 7.8447 29.284 8.04818 29.434 8.19821C29.5841 8.34824 29.7875 8.43252 29.9997 8.43252C30.2119 8.43252 30.4154 8.34824 30.5654 8.19821C30.7154 8.04818 30.7997 7.8447 30.7997 7.63252V5.63799H34.3431C34.9794 5.63868 35.5894 5.89176 36.0394 6.3417C36.4893 6.79164 36.7424 7.40168 36.7431 8.03799V13.1997H13.9997C13.7875 13.1997 13.5841 13.284 13.434 13.434C13.284 13.5841 13.1997 13.7875 13.1997 13.9997C13.1997 14.2119 13.284 14.4154 13.434 14.5654C13.5841 14.7154 13.7875 14.7997 13.9997 14.7997H36.7431V23.7333C36.7431 25.1153 36.1583 25.4755 35.9661 25.5935Z" fill="#1D2D52"/>
<path d="M29.5306 37.1997H28.5931C28.3809 37.1997 28.1774 37.284 28.0274 37.434C27.8774 37.5841 27.7931 37.7875 27.7931 37.9997C27.7931 38.2119 27.8774 38.4154 28.0274 38.5654C28.1774 38.7154 28.3809 38.7997 28.5931 38.7997H29.5306C29.7427 38.7997 29.9462 38.7154 30.0963 38.5654C30.2463 38.4154 30.3306 38.2119 30.3306 37.9997C30.3306 37.7875 30.2463 37.5841 30.0963 37.434C29.9462 37.284 29.7427 37.1997 29.5306 37.1997Z" fill="#1D2D52"/>
</svg>
