<svg width="40" height="40" viewBox="0 0 40 40" fill="none" xmlns="http://www.w3.org/2000/svg">
<path d="M28.6885 19.536C28.9365 19.296 28.7605 18.872 28.4165 18.88L23.2805 18.984C23.1285 18.984 22.9845 18.896 22.9205 18.752L20.3605 12.864C20.2245 12.56 19.7925 12.56 19.6565 12.872L17.2085 18.688C17.1445 18.832 17.0085 18.92 16.8565 18.92L11.5845 18.872C11.2405 18.872 11.0645 19.288 11.3125 19.528L15.1765 23.296C15.2645 23.384 15.3045 23.512 15.2885 23.632L14.3445 29.128C14.2885 29.44 14.6165 29.68 14.8965 29.528L19.8325 26.936C19.9445 26.88 20.0805 26.88 20.1845 26.936L25.1205 29.528C25.4005 29.672 25.7285 29.44 25.6725 29.128L24.7285 23.632C24.7045 23.512 24.7445 23.384 24.8405 23.296L28.6885 19.536Z" fill="#18BABD"/>
<path d="M38.9201 26.216C38.9201 26.656 38.5601 27.016 38.1201 27.016H36.7681V28.368C36.7681 28.808 36.4081 29.168 35.9681 29.168C35.5281 29.168 35.1681 28.808 35.1681 28.368V27.016H33.8161C33.3761 27.016 33.0161 26.656 33.0161 26.216C33.0161 25.776 33.3761 25.416 33.8161 25.416H35.1681V24.064C35.1681 23.624 35.5281 23.264 35.9681 23.264C36.4081 23.264 36.7681 23.624 36.7681 24.064V25.416H38.1201C38.5601 25.416 38.9201 25.768 38.9201 26.216ZM4.10408 9.36001V11.584C4.10408 12.024 4.46408 12.384 4.90408 12.384C5.34408 12.384 5.70408 12.024 5.70408 11.584V9.36001H7.92008C8.36008 9.36001 8.72008 9.00001 8.72008 8.56001C8.72008 8.12001 8.36008 7.76001 7.92008 7.76001H5.70408V5.53601C5.70408 5.09601 5.34408 4.73601 4.90408 4.73601C4.46408 4.73601 4.10408 5.09601 4.10408 5.53601V7.76001H1.88008C1.44008 7.76001 1.08008 8.12001 1.08008 8.56001C1.08008 9.00001 1.44008 9.36001 1.88008 9.36001H4.10408ZM29.7921 24.88L38.4241 16.464C38.6561 16.24 38.7281 15.888 38.6081 15.592C38.4881 15.288 38.1921 15.096 37.8641 15.096L29.2881 15.104C28.8481 15.104 28.4881 15.464 28.4881 15.904C28.4881 16.344 28.8481 16.704 29.2881 16.704L35.8961 16.696L28.3761 24.024C28.1841 24.208 28.1041 24.472 28.1441 24.736L29.9761 35.432L20.3681 30.384C20.1361 30.264 19.8561 30.264 19.6241 30.384L10.0161 35.432L11.8481 24.736C11.8961 24.48 11.8081 24.208 11.6161 24.024L4.08808 16.688L14.4561 16.68C14.7761 16.68 15.0641 16.488 15.1921 16.192L20.0401 4.82401L23.9841 12.8C24.1761 13.2 24.6561 13.36 25.0561 13.16C25.4561 12.968 25.6161 12.488 25.4161 12.088L20.7201 2.56001C20.5841 2.28001 20.2801 2.08801 19.9841 2.11201C19.6721 2.12001 19.3921 2.31201 19.2721 2.60001L13.9521 15.088H2.13608C1.80808 15.088 1.52008 15.288 1.39208 15.584C1.27208 15.888 1.34408 16.232 1.57608 16.456L10.2081 24.88L8.16808 36.76C8.12008 37.064 8.24008 37.36 8.48808 37.544C8.73608 37.72 9.06408 37.744 9.32808 37.608L20.0001 31.992L30.6721 37.6C30.7921 37.664 30.9201 37.688 31.0401 37.688C31.2081 37.688 31.3681 37.64 31.5121 37.536C31.7601 37.36 31.8801 37.056 31.8321 36.752L29.7921 24.88ZM33.3601 31.432C32.9601 31.432 32.6401 31.752 32.6401 32.152C32.6401 32.552 32.9601 32.872 33.3601 32.872C33.7601 32.872 34.0801 32.552 34.0801 32.152C34.0801 31.752 33.7601 31.432 33.3601 31.432ZM9.62408 13.16C10.0241 13.16 10.3441 12.84 10.3441 12.44C10.3441 12.04 10.0241 11.72 9.62408 11.72C9.22408 11.72 8.90408 12.04 8.90408 12.44C8.90408 12.84 9.22408 13.16 9.62408 13.16Z" fill="#1D2D52"/>
</svg>
