<svg width="40" height="40" viewBox="0 0 40 40" fill="none" xmlns="http://www.w3.org/2000/svg">
<g clip-path="url(#clip0_5927_19130)">
<path d="M31.0364 23.3615C31.0364 20.8382 30.0306 18.552 28.4096 16.9009L23.2559 22.1507C23.5634 22.464 23.7463 22.8873 23.7463 23.3615C23.7463 23.8357 23.5551 24.2591 23.2559 24.5723L28.4096 29.8221C30.0306 28.171 31.0364 25.8848 31.0364 23.3615Z" fill="#18BABD"/>
<path d="M15.5508 33.8442C15.3347 34.2591 15.4926 34.7671 15.8999 34.9873C17.7453 35.978 19.8317 36.503 21.9348 36.503C29.0752 36.503 34.8857 30.5842 34.8857 23.3108C34.8857 16.0373 29.0752 10.1185 21.9348 10.1185C17.3463 10.1185 13.1983 12.5064 10.8293 16.5199C10.5882 16.9179 10.7212 17.4428 11.1119 17.6799C11.5026 17.917 12.018 17.79 12.2507 17.392C14.3122 13.9035 17.9365 11.812 21.9265 11.812C28.1526 11.812 33.2149 16.9687 33.2149 23.3108C33.2149 29.6528 28.1609 34.8095 21.9348 34.8095C20.106 34.8095 18.2856 34.3522 16.6813 33.4886C16.2657 33.2769 15.7669 33.4293 15.5508 33.8442Z" fill="#1D2D52"/>
<path d="M12.3754 25.326C12.3754 24.8603 12.0013 24.4793 11.5442 24.4793H3.23164C2.77445 24.4793 2.40039 24.8603 2.40039 25.326C2.40039 25.7917 2.77445 26.1727 3.23164 26.1727H11.5442C12.0013 26.1727 12.3754 25.7917 12.3754 25.326Z" fill="#1D2D52"/>
<path d="M5.52589 22.1253H13.6472C14.1044 22.1253 14.4785 21.7443 14.4785 21.2786C14.4785 20.8129 14.1044 20.4318 13.6472 20.4318H5.52589C5.06871 20.4318 4.69464 20.8129 4.69464 21.2786C4.69464 21.7443 5.06871 22.1253 5.52589 22.1253Z" fill="#1D2D52"/>
<path d="M15.3263 29.6274C15.3263 29.1617 14.9523 28.7807 14.4951 28.7807H6.06621C5.60902 28.7807 5.23496 29.1617 5.23496 29.6274C5.23496 30.0931 5.60902 30.4742 6.06621 30.4742H14.4951C14.9606 30.4742 15.3263 30.0931 15.3263 29.6274Z" fill="#1D2D52"/>
<path d="M28.7594 16.3675C28.4352 16.0373 27.9115 16.0373 27.5873 16.3675L22.9157 21.1262C22.6164 20.9907 22.2922 20.906 21.9431 20.906C20.638 20.906 19.5824 21.9898 19.5824 23.3108C19.5824 24.6317 20.6464 25.7155 21.9431 25.7155C23.2399 25.7155 24.3039 24.6317 24.3039 23.3108C24.3039 22.9551 24.2207 22.6249 24.0877 22.3201L28.7594 17.5614C29.0836 17.2312 29.0836 16.6977 28.7594 16.3675ZM21.9348 24.0305C21.5524 24.0305 21.2365 23.7087 21.2365 23.3192C21.2365 22.9297 21.5524 22.608 21.9348 22.608C22.3172 22.608 22.633 22.9297 22.633 23.3192C22.633 23.7087 22.3172 24.0305 21.9348 24.0305Z" fill="#1D2D52"/>
<path d="M35.0602 13.3192L36.0328 12.3201C36.4734 11.8713 36.7228 11.2701 36.7228 10.6351C36.7228 10 36.4817 9.39881 36.0328 8.95004C35.1434 8.0525 33.6056 8.0525 32.7161 8.95004L31.7352 9.94073C29.5324 8.26418 26.9722 7.18036 24.254 6.79086V4.73328H24.7943C26.0744 4.73328 27.1218 3.67485 27.1218 2.3624C27.1218 1.04996 26.0827 0 24.8026 0H19.067C17.7868 0 16.7395 1.05842 16.7395 2.37087C16.7395 3.68332 17.7785 4.74174 19.067 4.74174H19.6073V6.79932C16.116 7.30737 12.8575 8.96698 10.3472 11.5241C10.023 11.8544 10.023 12.3878 10.3472 12.718C10.6713 13.0483 11.195 13.0483 11.5192 12.718C13.9298 10.2625 17.1302 8.72142 20.5134 8.39119C20.9373 8.34886 21.2698 7.98476 21.2698 7.54445V3.88654C21.2698 3.42083 20.8957 3.0398 20.4385 3.0398H19.067C18.7012 3.0398 18.402 2.73497 18.402 2.3624C18.402 1.98984 18.7012 1.69348 19.067 1.69348H24.8026C25.1684 1.69348 25.4676 1.99831 25.4676 2.37087C25.4676 2.74344 25.1684 3.04826 24.8026 3.04826H23.431C22.9739 3.04826 22.5998 3.4293 22.5998 3.895V7.54445C22.5998 7.98476 22.924 8.34886 23.3562 8.39119C26.249 8.67062 28.9672 9.80525 31.2199 11.6765C31.2282 11.685 31.2365 11.6935 31.2448 11.7019C31.569 12.0152 32.0844 12.0068 32.4002 11.685L33.9048 10.1524C34.1625 9.88992 34.6114 9.88992 34.8691 10.1524C35.0021 10.2879 35.0686 10.4572 35.0686 10.6435C35.0686 10.8298 35.0021 10.9992 34.8691 11.1346L33.3728 12.6672C33.0569 12.989 33.0486 13.5055 33.3479 13.8357C33.3479 13.8357 33.3479 13.8357 33.3562 13.8442C35.4925 16.5114 36.6729 19.873 36.6729 23.3277C36.6729 31.6003 30.0727 38.3235 21.9514 38.3235C18.0196 38.3235 14.3205 36.7654 11.5442 33.9289C11.22 33.5986 10.6963 33.5986 10.3721 33.9289C10.0479 34.2591 10.0479 34.7925 10.3721 35.1228C13.4643 38.2726 17.579 40.0085 21.9597 40.0085C30.9954 40.0085 38.3437 32.5233 38.3437 23.3192C38.3188 19.7121 37.1633 16.1897 35.0602 13.3192Z" fill="#1D2D52"/>
</g>
<defs>
<clipPath id="clip0_5927_19130">
<rect width="40" height="40" fill="white"/>
</clipPath>
</defs>
</svg>
